<svg viewBox="0 0 477 124" fill="none" xmlns="http://www.w3.org/2000/svg">
<path d="M170.9 94.1V85.6H162.1V29.2H174.8V80.5H179.7V63.3H188.6V37.8H201.3V63.3H210.2V80.5H215.2V29.2H227.8V85.6H219.1V94.1H206.3V85.6H197.4V68.4H192.5V85.6H183.6V94.1H170.9ZM245.802 94.1V85.6H237.002V54.9H245.802V46.3H276.202V54.9H285.102V85.6H276.202V94.1H245.802ZM249.702 80.5H272.302V59.9H249.702V80.5ZM297.256 94.1V46.3H336.456V54.9H345.356V94.1H332.556V59.9H309.956V94.1H297.256ZM364.357 94.1V85.6H355.557V54.9H364.357V46.3H390.957V29.2H403.757V85.6H394.757V94.1H364.357ZM368.257 80.5H390.857V59.9H368.257V80.5ZM422.658 94.1V85.6H413.858V54.9H422.658V46.3H453.058V54.9H461.958V80.5H470.858V94.1H458.058V85.6H453.058V94.1H422.658ZM426.558 80.5H449.158V59.9H426.558V80.5Z" fill="white"/>
<path d="M60.9607 0H50.8009V4.56397H60.9607V0Z" fill="white"/>
<path d="M114.302 0H101.602V4.56397H114.302V0Z" fill="white"/>
<path d="M66.0366 4.56302H48.257V9.12699H66.0366V4.56302Z" fill="white"/>
<path d="M83.8162 4.56302H81.2763V9.12699H83.8162V4.56302Z" fill="white"/>
<path d="M116.834 4.56302H96.5139V9.12699H116.834V4.56302Z" fill="white"/>
<path d="M50.8016 9.12822H45.7217V13.6922H50.8016V9.12822Z" fill="white"/>
<path d="M101.599 9.12822H60.9594V13.6922H101.599V9.12822Z" fill="white"/>
<path d="M119.375 9.12822H114.296V13.6922H119.375V9.12822Z" fill="white"/>
<path d="M50.8016 13.6922H45.7217V18.2552H50.8016V13.6922Z" fill="white"/>
<path d="M81.2783 13.6912H66.0386V18.2552H81.2783V13.6912Z" fill="white"/>
<path d="M96.52 13.6912H83.8202V18.2552H96.52V13.6912Z" fill="white"/>
<path d="M119.375 13.6922H114.296V18.2552H119.375V13.6922Z" fill="white"/>
<path d="M48.2576 18.2564H43.1777V22.8204H48.2576V18.2564Z" fill="white"/>
<path d="M71.1225 18.2564H68.5826V22.8204H71.1225V18.2564Z" fill="white"/>
<path d="M119.376 18.2564H109.216V22.8204H119.376V18.2564Z" fill="white"/>
<path d="M48.2576 22.8204H43.1777V27.3834H48.2576V22.8204Z" fill="white"/>
<path d="M83.8142 22.8195H63.4946V27.3834H83.8142V22.8195Z" fill="white"/>
<path d="M114.298 22.8195H93.9787V27.3834H114.298V22.8195Z" fill="white"/>
<path d="M121.919 22.8195H116.84V27.3834H121.919V22.8195Z" fill="white"/>
<path d="M45.7231 27.3847H35.5633V31.9486H45.7231V27.3847Z" fill="white"/>
<path d="M66.0393 27.3847H60.9594V31.9486H66.0393V27.3847Z" fill="white"/>
<path d="M86.3562 27.3847H81.2763V31.9486H86.3562V27.3847Z" fill="white"/>
<path d="M96.5146 27.3847H91.4347V31.9486H96.5146V27.3847Z" fill="white"/>
<path d="M124.46 27.3847H111.76V31.9486H124.46V27.3847Z" fill="white"/>
<path d="M43.1758 31.9477H25.3961V36.5117H43.1758V31.9477Z" fill="white"/>
<path d="M66.0352 31.9477H58.4154V36.5117H66.0352V31.9477Z" fill="white"/>
<path d="M76.1977 31.9477H71.1178V36.5117H76.1977V31.9477Z" fill="white"/>
<path d="M86.3562 31.9486H81.2763V36.5117H86.3562V31.9486Z" fill="white"/>
<path d="M96.5146 31.9486H91.4347V36.5117H96.5146V31.9486Z" fill="white"/>
<path d="M106.682 31.9477H101.602V36.5117H106.682V31.9477Z" fill="white"/>
<path d="M127 31.9477L111.76 31.9486V36.5117H127V31.9477Z" fill="white"/>
<path d="M35.5613 36.5107H17.7816V41.0747H35.5613V36.5107Z" fill="white"/>
<path d="M66.0399 36.5107H55.8801V41.0747H66.0399V36.5107Z" fill="white"/>
<path d="M78.7424 36.5107H68.5826V41.0747H78.7424V36.5107Z" fill="white"/>
<path d="M86.3562 36.5117H81.2763V41.0747H86.3562V36.5117Z" fill="white"/>
<path d="M96.5146 36.5117H91.4347V41.0747H96.5146V36.5117Z" fill="white"/>
<path d="M109.218 36.5107H99.0579V41.0747H109.218V36.5107Z" fill="white"/>
<path d="M116.84 36.5107L111.76 36.5117V41.0747H116.84V36.5107Z" fill="white"/>
<path d="M126.995 36.5107H119.375V41.0747H126.995V36.5107Z" fill="white"/>
<path d="M25.4022 41.0759H12.7024V45.6399H25.4022V41.0759Z" fill="white"/>
<path d="M66.0399 41.0759H55.8801V45.6399H66.0399V41.0759Z" fill="white"/>
<path d="M76.1977 41.0759H71.1178V45.6399H76.1977V41.0759Z" fill="white"/>
<path d="M86.3562 41.0759H81.2763V45.6399H86.3562V41.0759Z" fill="white"/>
<path d="M96.5146 41.0759H91.4347V45.6399H96.5146V41.0759Z" fill="white"/>
<path d="M106.682 41.0759H101.602V45.6399H106.682V41.0759Z" fill="white"/>
<path d="M127 41.0759H111.76V45.6399H127V41.0759Z" fill="white"/>
<path d="M17.7783 45.6389H10.1584V50.2029H17.7783V45.6389Z" fill="white"/>
<path d="M66.0352 45.6389H58.4154V50.2029H66.0352V45.6389Z" fill="white"/>
<path d="M86.3562 45.6399H81.2763V50.2029H86.3562V45.6399Z" fill="white"/>
<path d="M96.5146 45.6399H91.4347V50.2029H96.5146V45.6399Z" fill="white"/>
<path d="M119.38 45.6389L111.76 45.6399V50.2029H119.38V45.6389Z" fill="white"/>
<path d="M126.999 45.6389H121.919V50.2029H126.999V45.6389Z" fill="white"/>
<path d="M12.6991 50.2041H5.07922V54.7681H12.6991V50.2041Z" fill="white"/>
<path d="M83.8142 50.2041H63.4946V54.7681H83.8142V50.2041Z" fill="white"/>
<path d="M114.298 50.2041H93.9787V54.7681H114.298V50.2041Z" fill="white"/>
<path d="M126.999 50.2041H121.919V54.7681H126.999V50.2041Z" fill="white"/>
<path d="M10.1591 54.7672L5.07922 54.7681V59.3311H10.1591V54.7672Z" fill="white"/>
<path d="M68.5745 54.7672L63.4946 54.7681V59.3311H68.5745V54.7672Z" fill="white"/>
<path d="M114.3 54.7672H111.76V59.3311H114.3V54.7672Z" fill="white"/>
<path d="M124.455 54.7672H119.375V59.3311H124.455V54.7672Z" fill="white"/>
<path d="M7.62387 59.3324H2.54397V63.8963H7.62387V59.3324Z" fill="white"/>
<path d="M121.919 59.3324H116.84V63.8963H121.919V59.3324Z" fill="white"/>
<path d="M5.0799 63.8562H0V68.4202H5.0799V63.8562Z" fill="white"/>
<path d="M119.375 63.8562H114.296V68.4202H119.375V63.8562Z" fill="white"/>
<path d="M5.0799 68.4606H0V73.0246H5.0799V68.4606Z" fill="white"/>
<path d="M116.84 68.4606H111.76V73.0246H116.84V68.4606Z" fill="white"/>
<path d="M5.0799 73.0246H0V77.5876H5.0799V73.0246Z" fill="white"/>
<path d="M114.296 73.0236H109.216V77.5876H114.296V73.0236Z" fill="white"/>
<path d="M5.0799 77.5474H0V82.1114H5.0799V77.5474Z" fill="white"/>
<path d="M71.1198 77.5474H55.8801V82.1114H71.1198V77.5474Z" fill="white"/>
<path d="M116.84 77.5474H111.76V82.1114H116.84V77.5474Z" fill="white"/>
<path d="M5.0799 82.1518H0V86.7158H5.0799V82.1518Z" fill="white"/>
<path d="M50.8016 82.1518H45.7217V86.7158H50.8016V82.1518Z" fill="white"/>
<path d="M76.1957 82.1518H53.3362V86.7158H76.1957V82.1518Z" fill="white"/>
<path d="M116.84 82.1518H111.76V86.7158H116.84V82.1518Z" fill="white"/>
<path d="M5.0799 86.6757H0V91.2396H5.0799V86.6757Z" fill="white"/>
<path d="M55.8775 86.6757H43.1777V91.2396H55.8775V86.6757Z" fill="white"/>
<path d="M78.7377 86.6757H71.1178V91.2396H78.7377V86.6757Z" fill="white"/>
<path d="M116.84 86.6757H111.76V91.2396H116.84V86.6757Z" fill="white"/>
<path d="M5.0799 91.2801H0V95.844H5.0799V91.2801Z" fill="white"/>
<path d="M45.7224 91.2801H40.6425V95.844H45.7224V91.2801Z" fill="white"/>
<path d="M73.6605 91.2801H50.8009V95.844H73.6605V91.2801Z" fill="white"/>
<path d="M81.2769 91.2801H76.197V95.844H81.2769V91.2801Z" fill="white"/>
<path d="M114.296 91.2801H109.216V95.844H114.296V91.2801Z" fill="white"/>
<path d="M7.62387 95.8431H2.54397V100.407H7.62387V95.8431Z" fill="white"/>
<path d="M53.3375 95.8431H43.1777V100.407H53.3375V95.8431Z" fill="white"/>
<path d="M76.1997 95.8431H55.8801V100.407H76.1997V95.8431Z" fill="white"/>
<path d="M83.8209 95.8431H78.741V100.407H83.8209V95.8431Z" fill="white"/>
<path d="M114.301 95.8431H106.681V100.407H114.301V95.8431Z" fill="white"/>
<path d="M12.6991 100.367H5.07922V104.931H12.6991V100.367Z" fill="white"/>
<path d="M50.8016 100.367H45.7217V104.931H50.8016V100.367Z" fill="white"/>
<path d="M76.1977 100.367H71.1178V104.931H76.1977V100.367Z" fill="white"/>
<path d="M83.8209 100.367H78.741V104.931H83.8209V100.367Z" fill="white"/>
<path d="M109.218 100.367H99.0579V104.931H109.218V100.367Z" fill="white"/>
<path d="M17.783 104.971H7.62319V109.535H17.783V104.971Z" fill="white"/>
<path d="M76.2024 104.971H68.5826V109.535H76.2024V104.971Z" fill="white"/>
<path d="M106.68 104.971H78.741V109.535H106.68V104.971Z" fill="white"/>
<path d="M27.9421 109.495H12.7024V114.059H27.9421V109.495Z" fill="white"/>
<path d="M76.1944 109.495H63.4946V114.059H76.1944V109.495Z" fill="white"/>
<path d="M99.0606 109.495H78.741V114.059H99.0606V109.495Z" fill="white"/>
<path d="M68.5806 114.06H17.7816V118.624H68.5806V114.06Z" fill="white"/>
<path d="M63.4994 118.663H27.9401V123.227H63.4994V118.663Z" fill="white"/>
</svg>
